<svg xmlns="http://www.w3.org/2000/svg" viewBox="0 0 512 512"><title>Chat01</title><g id="Chat_01" data-name="Chat 01"><g id="Chat_01-2" data-name="Chat 01"><path d="M256,73.8247c-100.6083,0-182.1708,81.5625-182.1708,182.18,0,100.6,81.5625,182.1708,182.1708,182.1708s182.1708-81.5706,182.1708-182.1708C438.1708,155.3872,356.6083,73.8247,256,73.8247ZM182.506,330.36,137.3566,342.454l12.357-46.125A99.1233,99.1233,0,1,1,182.506,330.36Zm192.2346,31.2894-41.0715-11.0043A90.2335,90.2335,0,0,1,250.015,357.29a111.6162,111.6162,0,0,0,87.1606-156.7962A90.1337,90.1337,0,0,1,363.4987,319.69Z"/></g></g></svg>