<svg id="Layer_1" data-name="Layer 1" xmlns="http://www.w3.org/2000/svg" viewBox="0 0 128 128"><title>RATING</title><path d="M58.527,66.5l-.692,4.037a1.75,1.75,0,0,0,2.539,1.845L64,70.476l3.626,1.906a1.75,1.75,0,0,0,2.539-1.845L69.473,66.5l2.934-2.86a1.749,1.749,0,0,0-.97-2.984l-4.055-.59-1.813-3.673a1.75,1.75,0,0,0-3.139,0l-1.813,3.673-4.055.59a1.749,1.749,0,0,0-.97,2.984Zm3.5-3.1a1.747,1.747,0,0,0,1.317-.957L64,61.121l.651,1.318a1.747,1.747,0,0,0,1.317.957l1.456.212-1.054,1.027a1.749,1.749,0,0,0-.5,1.549l.249,1.45-1.3-.685a1.749,1.749,0,0,0-1.629,0l-1.3.685.249-1.45a1.749,1.749,0,0,0-.5-1.549l-1.054-1.027Z"/><path d="M79.807,66.5l-.692,4.037a1.75,1.75,0,0,0,2.539,1.845l3.626-1.906,3.626,1.906a1.75,1.75,0,0,0,2.539-1.845L90.752,66.5l2.934-2.86a1.749,1.749,0,0,0-.97-2.984l-4.055-.59-1.813-3.673a1.75,1.75,0,0,0-3.139,0L81.9,60.065l-4.055.59a1.749,1.749,0,0,0-.97,2.984Zm3.5-3.1a1.747,1.747,0,0,0,1.317-.957l.651-1.318.651,1.318a1.747,1.747,0,0,0,1.317.957l1.456.212L87.65,64.636a1.749,1.749,0,0,0-.5,1.549l.249,1.45-1.3-.685a1.753,1.753,0,0,0-1.629,0l-1.3.685.249-1.45a1.749,1.749,0,0,0-.5-1.549l-1.054-1.027Z"/><path d="M101.086,66.5l-.692,4.037a1.749,1.749,0,0,0,2.539,1.845l3.627-1.906,3.626,1.906a1.75,1.75,0,0,0,2.539-1.845l-.692-4.037,2.934-2.86a1.749,1.749,0,0,0-.97-2.984l-4.055-.59-1.813-3.673a1.75,1.75,0,0,0-3.139,0l-1.813,3.673-4.055.59a1.749,1.749,0,0,0-.97,2.984Zm3.5-3.1a1.747,1.747,0,0,0,1.317-.957l.651-1.318.651,1.318a1.747,1.747,0,0,0,1.317.957l1.456.212-1.054,1.027a1.749,1.749,0,0,0-.5,1.549l.249,1.45-1.3-.685a1.752,1.752,0,0,0-1.628,0l-1.3.685.249-1.45a1.75,1.75,0,0,0-.5-1.549l-1.054-1.027Z"/><path d="M37.248,66.5l-.692,4.037a1.75,1.75,0,0,0,2.539,1.845l3.626-1.906,3.626,1.906a1.75,1.75,0,0,0,2.539-1.845L48.193,66.5l2.934-2.86a1.749,1.749,0,0,0-.97-2.984l-4.055-.59L44.29,56.393a1.75,1.75,0,0,0-3.139,0l-1.813,3.673-4.055.59a1.749,1.749,0,0,0-.97,2.984Zm3.5-3.1a1.747,1.747,0,0,0,1.317-.957l.651-1.318.651,1.318a1.747,1.747,0,0,0,1.317.957l1.457.212-1.054,1.027a1.749,1.749,0,0,0-.5,1.549l.249,1.45-1.3-.685a1.749,1.749,0,0,0-1.629,0l-1.3.685.249-1.45a1.749,1.749,0,0,0-.5-1.549L39.3,63.608Z"/><path d="M15.968,66.5l-.692,4.037a1.75,1.75,0,0,0,2.539,1.845l3.626-1.906,3.627,1.906a1.749,1.749,0,0,0,2.539-1.845L26.914,66.5l2.934-2.86a1.749,1.749,0,0,0-.97-2.984l-4.055-.59L23.01,56.393a1.75,1.75,0,0,0-3.139,0l-1.813,3.673L14,60.655a1.749,1.749,0,0,0-.97,2.984Zm3.5-3.1a1.747,1.747,0,0,0,1.317-.957l.651-1.318.651,1.318a1.747,1.747,0,0,0,1.317.957l1.457.212-1.054,1.027a1.75,1.75,0,0,0-.5,1.549l.249,1.45-1.3-.685a1.748,1.748,0,0,0-1.628,0l-1.3.685.249-1.45a1.749,1.749,0,0,0-.5-1.549l-1.054-1.027Z"/><path d="M121.5,42.346H6.5A1.75,1.75,0,0,0,4.75,44.1V83.9a1.75,1.75,0,0,0,1.75,1.75h115a1.75,1.75,0,0,0,1.75-1.75V44.1A1.75,1.75,0,0,0,121.5,42.346Zm-1.75,39.809H8.25V45.846h111.5Z"/></svg>