<?xml version="1.0" encoding="UTF-8"?>
<!DOCTYPE svg PUBLIC "-//W3C//DTD SVG 1.1//EN" "http://www.w3.org/Graphics/SVG/1.1/DTD/svg11.dtd">
<!-- Creator: CorelDRAW -->
<svg xmlns="http://www.w3.org/2000/svg" xml:space="preserve" width="2048px" height="2048px" style="shape-rendering:geometricPrecision; text-rendering:geometricPrecision; image-rendering:optimizeQuality; fill-rule:evenodd; clip-rule:evenodd"
viewBox="0 0 2048 2048"
 xmlns:xlink="http://www.w3.org/1999/xlink">
 <defs>
  <style type="text/css">
   <![CDATA[
    .fil2 {fill:none}
    .fil1 {fill:#424242}
    .fil0 {fill:#424242;fill-rule:nonzero}
   ]]>
  </style>
 </defs>
 <g id="Layer_x0020_1">
  <metadata id="CorelCorpID_0Corel-Layer"/>
  <g id="_476538816">
   <path id="_476539608" class="fil0" d="M1068.27 1172.84l605.899 0c18.6095,0 33.6969,15.0874 33.6969,33.6969 0,4.16693 -0.757087,8.15552 -2.14016,11.8382l-100.263 367.633 -32.3788 -8.81812 32.5087 8.86536c-4.14922,15.2114 -18.0803,25.1315 -33.1571,24.8303l-370.004 0c-15.4831,0 -28.5236,-10.4445 -32.4709,-24.6697l-133.889 -368.196 -0.0874016 0.0330709c-6.35906,-17.4886 2.66221,-36.8233 20.1508,-43.1823 4.00866,-1.45748 8.11182,-2.10473 12.1347,-2.03032zm231.078 246.184c-18.6095,0 -33.6957,15.0874 -33.6957,33.6969 0,18.6083 15.0862,33.6957 33.6957,33.6957l143.125 0c18.6095,0 33.6969,-15.0874 33.6969,-33.6957 0,-18.6095 -15.0874,-33.6969 -33.6969,-33.6969l-143.125 0zm-24.6957 -118.461c-18.6095,0 -33.6969,15.0874 -33.6969,33.6969 0,18.6083 15.0874,33.6957 33.6969,33.6957l192.516 0c18.6095,0 33.6969,-15.0874 33.6969,-33.6957 0,-18.6095 -15.0874,-33.6969 -33.6969,-33.6969l-192.516 0z"/>
   <path id="_476539800" class="fil0" d="M1162.9 935.878l-0.246851 -20.9776 68.4213 -1.01575c2.3811,-0.253937 4.84607,-0.102756 7.30512,0.507874 11.2866,2.80512 18.163,14.2299 15.3591,25.5177l-0.0496063 -0.011811c-7.3063,29.4024 -13.2732,50.4615 -17.8854,66.7477 -6.91064,24.3981 -10.5567,37.2721 -10.3488,47.8453 0.236221,12.0189 5.40237,26.3858 16.3311,56.791 5.22284,14.5311 11.4579,31.8721 15.9248,44.8524l-0.00944883 0.00354331c5.49922,14.5087 5.56182,27.4004 1.77165,38.3611 -3.6378,10.5177 -10.5413,18.6248 -19.526,24.3 -0.505512,0.359055 -1.02874,0.698032 -1.57441,1.01693l-0.00354331 -0.00826772c-8.45552,4.93111 -18.6532,7.69607 -29.4095,8.24646 -17.7532,0.904725 -37.7599,-4.40788 -53.7721,-16.1788 -3.8752,-2.46851 -6.97441,-6.21615 -8.58662,-10.898l19.9134 -6.8563 -19.9075 6.82796c-3.27047,-9.49489 -5.70945,-16.1988 -8.26536,-23.224 -13.5012,-37.1091 -29.8984,-82.1764 -30.111,-116.57 -0.20315,-33.5351 15.1453,-76.6134 27.4134,-111.046 2.6563,-7.45512 5.17441,-14.524 6.81969,-19.3394 2.25473,-9.04253 10.3642,-15.8043 20.1225,-15.9508l0.314173 21.0591z"/>
   <path id="_476539464" class="fil0" d="M660.699 259.611c1.61221,0.266929 3.18307,0.662599 4.69607,1.17874 35.9882,9.68387 64.9359,32.7626 82.7965,62.5004 17.8772,29.7697 24.6284,66.1926 16.1882,102.488 -0.266929,1.61457 -0.66378,3.1878 -1.17992,4.70315 -9.68505,35.987 -32.7626,64.9382 -62.5004,82.7965 -29.7733,17.8784 -66.2008,24.6307 -102.496,16.1858 -1.61221,-0.265748 -3.18071,-0.662599 -4.69252,-1.17638 -35.9894,-9.68505 -64.9394,-32.7638 -82.7989,-62.5016 -18.2374,-30.3721 -24.9,-67.6689 -15.6614,-104.688 9.27166,-37.1492 32.7284,-67.0276 63.1536,-85.2993 29.7697,-17.8772 66.1985,-24.6295 102.495,-16.187z"/>
   <path id="_476539296" class="fil1" d="M673.789 640.209l-0.643701 -2.38229c-0.491339,-1.48937 -0.929528,-3.02126 -1.46221,-4.49174 -0.664961,-1.83307 -1.39016,-3.64725 -2.19685,-5.42008l-1.16811 -2.56418c-5.49685,-10.924 -12.124,-21.3603 -20.7083,-30.1299 -9.10513,-9.30237 -19.8508,-16.7622 -31.6855,-22.1693 -25.6134,-11.7024 -54.7524,-12.7476 -81.1359,-2.9126 -26.4662,9.86694 -47.7201,29.6055 -59.4497,55.3122 -17.6055,38.5878 -33.5268,77.9316 -47.6788,117.918 -14.9847,42.339 -27.9402,85.382 -39.1122,128.88 -11.889,46.2839 -21.7807,93.0662 -29.6421,140.201 -8.38111,50.2642 -14.6433,100.861 -18.6992,151.658 -0.435827,5.45552 1.2437,14.6894 2.15906,20.1166 2.18268,12.952 4.93819,25.8851 7.6441,38.739 7.33465,34.865 14.7543,69.6296 20.0386,104.887 4.00748,26.7378 6.95788,54.1193 6.95788,81.1772l0 310.227c0,19.3772 7.60985,37.7374 21.3095,51.4382 13.6996,13.6984 32.061,21.3095 51.437,21.3095 19.3772,0 37.7374,-7.61221 51.437,-21.3095 13.6984,-13.7008 21.3106,-32.0599 21.3106,-51.4382l0 -310.885c0,-34.1481 1.52835,-68.4957 6.58583,-102.301 3.28465,-21.9555 8.27599,-42.8386 13.3028,-64.3938 4.7752,-20.4709 8.39764,-39.9638 10.0736,-60.9756 3.60591,-45.1949 8.95631,-90.2564 16.3039,-135.001 1.80236,-10.9784 3.72402,-21.9378 5.76969,-32.8748l17.9256 -95.8926 25.4953 103.991c0.38504,1.57323 0.649607,3.49252 1.04055,5.15079 8.69528,13.5047 51.078,52.5733 65.2512,54.6142l209.358 30.1418c19.1008,2.74961 38.2996,-2.29606 53.7142,-13.8697 15.4476,-11.5984 25.6099,-28.6229 28.3335,-47.7685 2.7189,-19.1103 -2.28071,-38.3244 -13.8614,-53.7473 -11.6091,-15.4583 -28.6583,-25.5839 -47.8052,-28.3406l-165.918 -23.8866 -74.2808 -303.006z"/>
   <path id="_476539224" class="fil0" d="M1033.28 1207.72c6.32481,17.4461 25.5957,26.4614 43.0418,20.1366 17.4473,-6.32363 26.4626,-25.5945 20.1378,-43.0406l-50.7083 -139.472 -31.5898 11.4508 31.6677 -11.5134c-5.38701,-14.8169 -20.0894,-23.5583 -35.0918,-22.0146l-48.4465 0.561024c-18.5374,0.145276 -33.4465,15.2906 -33.3012,33.828 0.145276,18.5374 15.2917,33.4465 33.828,33.3012l27.8941 -0.322441 42.5681 117.085z"/>
   <path id="_476538960" class="fil0" d="M1225.29 1631.34c19.2721,0 36.7252,7.81536 49.3559,20.4473 12.6331,12.6307 20.4461,30.0827 20.4461,49.3548 0,19.2756 -7.81418,36.7252 -20.4461,49.3559 -12.6307,12.6319 -30.0815,20.4461 -49.3559,20.4461 -19.2721,0 -36.7252,-7.813 -49.3559,-20.4461 -12.6307,-12.6307 -20.4461,-30.0839 -20.4461,-49.3559 0,-19.2721 7.81536,-36.724 20.4461,-49.3548 12.6307,-12.6319 30.0839,-20.4473 49.3559,-20.4473z"/>
   <path id="_476539440" class="fil0" d="M1528.55 1631.34c19.2732,0 36.7252,7.81536 49.3559,20.4473 12.6331,12.6307 20.4461,30.0827 20.4461,49.3548 0,19.2756 -7.81418,36.7252 -20.4461,49.3559 -12.6307,12.6319 -30.0803,20.4461 -49.3559,20.4461 -19.2721,0 -36.724,-7.813 -49.3548,-20.4461 -12.6307,-12.6307 -20.4461,-30.0839 -20.4461,-49.3559 0,-19.2721 7.81536,-36.724 20.4461,-49.3548 12.6307,-12.6319 30.0827,-20.4473 49.3548,-20.4473z"/>
   <path id="_476539272" class="fil0" d="M1174.84 977.808c11.5843,-0.635434 33.2126,-31.5697 32.5772,-43.1552 -0.635434,-11.5843 -10.5449,-20.4603 -22.1292,-19.8248 -31.8366,1.75276 -61.1245,-4.42205 -83.602,-16.8532 -20.1697,-11.1579 -34.5508,-27.3803 -39.4937,-47.1992 -2.77087,-11.2665 -14.1532,-18.1547 -25.4197,-15.3839 -11.2665,2.77087 -18.1536,14.1532 -15.3827,25.4197 12.6685,50.8004 105.904,119.615 153.45,116.997z"/>
   <path id="_476539104" class="fil0" d="M1288.83 1054.07c0.408662,11.5854 10.1327,20.6457 21.7181,20.237 11.5843,-0.407481 20.6445,-10.1315 20.237,-21.7169l-0.232677 -6.49607 -0.00236221 0 -0.0011811 -0.0106299 0.0732284 -0.00236221c-0.0212599,-0.587008 -0.0673229,-1.16693 -0.134646,-1.73858 -2.5441,-72.1949 -5.6504,-134.691 -112.931,-130.73 -11.5854,0.407481 -20.6457,10.1327 -20.2382,21.7169 0.408662,11.5854 -2.61851,41.6717 8.96575,41.263 65.5134,-2.41772 80.4993,19.5142 82.2556,69.2386 -0.0271654,0.581103 -0.0330709,1.16693 -0.011811,1.75748l0.0696851 -0.00236221 0.232677 6.48426z"/>
   <path id="_476538792" class="fil0" d="M1199.73 735.821c23.5855,0 44.9398,9.56339 60.3981,25.0193 15.4571,15.4595 25.0193,36.8138 25.0193,60.3981 0,23.5855 -9.56221,44.9422 -25.0193,60.3993 -15.4583,15.4559 -36.8126,25.0193 -60.3981,25.0193 -23.5855,0 -44.9422,-9.56339 -60.3981,-25.0193 -15.4571,-15.4571 -25.0193,-36.8138 -25.0193,-60.3993 0,-23.5843 9.56221,-44.9386 25.0193,-60.3981 15.4559,-15.4559 36.8126,-25.0193 60.3981,-25.0193z"/>
  </g>
 </g>
 <rect class="fil2" width="2048" height="2048"/>
</svg>
